{
	"patcher" : 	{
		"fileversion" : 1,
		"appversion" : 		{
			"major" : 7,
			"minor" : 3,
			"revision" : 5,
			"architecture" : "x86",
			"modernui" : 1
		}
,
		"rect" : [ 76.0, -1337.0, 1981.0, 1303.0 ],
		"bglocked" : 0,
		"openinpresentation" : 0,
		"default_fontsize" : 12.0,
		"default_fontface" : 0,
		"default_fontname" : "Arial",
		"gridonopen" : 1,
		"gridsize" : [ 15.0, 15.0 ],
		"gridsnaponopen" : 1,
		"objectsnaponopen" : 1,
		"statusbarvisible" : 2,
		"toolbarvisible" : 1,
		"lefttoolbarpinned" : 0,
		"toptoolbarpinned" : 0,
		"righttoolbarpinned" : 0,
		"bottomtoolbarpinned" : 0,
		"toolbars_unpinned_last_save" : 0,
		"tallnewobj" : 0,
		"boxanimatetime" : 200,
		"enablehscroll" : 1,
		"enablevscroll" : 1,
		"devicewidth" : 0.0,
		"description" : "",
		"digest" : "",
		"tags" : "",
		"style" : "",
		"subpatcher_template" : "",
		"boxes" : [ 			{
				"box" : 				{
					"id" : "obj-10",
					"maxclass" : "newobj",
					"numinlets" : 2,
					"numoutlets" : 1,
					"outlettype" : [ "int" ],
					"patching_rect" : [ 1116.666626, 681.666687, 41.0, 22.0 ],
					"style" : "",
					"text" : "+ 100"
				}

			}
, 			{
				"box" : 				{
					"id" : "obj-8",
					"maxclass" : "message",
					"numinlets" : 2,
					"numoutlets" : 1,
					"outlettype" : [ "" ],
					"patching_rect" : [ 1180.666748, 774.400024, 67.0, 22.0 ],
					"style" : "",
					"text" : "name buf1"
				}

			}
, 			{
				"box" : 				{
					"buffername" : "buf1",
					"id" : "obj-1",
					"ignoreclick" : 1,
					"maxclass" : "waveform~",
					"numinlets" : 5,
					"numoutlets" : 6,
					"outlettype" : [ "float", "float", "float", "float", "list", "" ],
					"patching_rect" : [ 382.0, 828.400024, 640.0, 282.0 ],
					"style" : "",
					"vlabels" : 1
				}

			}
, 			{
				"box" : 				{
					"floatoutput" : 1,
					"id" : "obj-60",
					"maxclass" : "slider",
					"min" : -48.0,
					"numinlets" : 1,
					"numoutlets" : 1,
					"outlettype" : [ "" ],
					"parameter_enable" : 1,
					"patching_rect" : [ 1061.0, 501.450012, 20.0, 120.900024 ],
					"saved_attribute_attributes" : 					{
						"valueof" : 						{
							"parameter_longname" : "slider[6]",
							"parameter_shortname" : "slider[1]",
							"parameter_type" : 3,
							"parameter_initial_enable" : 1,
							"parameter_initial" : [ -48.0 ],
							"parameter_invisible" : 1
						}

					}
,
					"size" : 48.0,
					"style" : "",
					"varname" : "slider[6]"
				}

			}
, 			{
				"box" : 				{
					"floatoutput" : 1,
					"id" : "obj-59",
					"maxclass" : "slider",
					"min" : -48.0,
					"numinlets" : 1,
					"numoutlets" : 1,
					"outlettype" : [ "" ],
					"parameter_enable" : 1,
					"patching_rect" : [ 1061.0, 350.549988, 20.0, 120.900024 ],
					"saved_attribute_attributes" : 					{
						"valueof" : 						{
							"parameter_longname" : "slider[5]",
							"parameter_shortname" : "slider[1]",
							"parameter_type" : 3,
							"parameter_initial_enable" : 1,
							"parameter_initial" : [ -48.0 ],
							"parameter_invisible" : 1
						}

					}
,
					"size" : 48.0,
					"style" : "",
					"varname" : "slider[5]"
				}

			}
, 			{
				"box" : 				{
					"floatoutput" : 1,
					"id" : "obj-58",
					"maxclass" : "slider",
					"min" : -48.0,
					"numinlets" : 1,
					"numoutlets" : 1,
					"outlettype" : [ "" ],
					"parameter_enable" : 1,
					"patching_rect" : [ 1061.0, 209.0, 20.0, 120.900024 ],
					"saved_attribute_attributes" : 					{
						"valueof" : 						{
							"parameter_longname" : "slider[4]",
							"parameter_shortname" : "slider[1]",
							"parameter_type" : 3,
							"parameter_initial_enable" : 1,
							"parameter_initial" : [ -48.0 ],
							"parameter_invisible" : 1
						}

					}
,
					"size" : 48.0,
					"style" : "",
					"varname" : "slider[4]"
				}

			}
, 			{
				"box" : 				{
					"floatoutput" : 1,
					"id" : "obj-57",
					"maxclass" : "slider",
					"min" : -48.0,
					"numinlets" : 1,
					"numoutlets" : 1,
					"outlettype" : [ "" ],
					"parameter_enable" : 1,
					"patching_rect" : [ 701.0, 501.450012, 20.0, 120.900024 ],
					"saved_attribute_attributes" : 					{
						"valueof" : 						{
							"parameter_longname" : "slider[3]",
							"parameter_shortname" : "slider[1]",
							"parameter_type" : 3,
							"parameter_initial_enable" : 1,
							"parameter_initial" : [ -48.0 ],
							"parameter_invisible" : 1
						}

					}
,
					"size" : 48.0,
					"style" : "",
					"varname" : "slider[3]"
				}

			}
, 			{
				"box" : 				{
					"floatoutput" : 1,
					"id" : "obj-56",
					"maxclass" : "slider",
					"min" : -48.0,
					"numinlets" : 1,
					"numoutlets" : 1,
					"outlettype" : [ "" ],
					"parameter_enable" : 1,
					"patching_rect" : [ 701.0, 350.549988, 20.0, 120.900024 ],
					"saved_attribute_attributes" : 					{
						"valueof" : 						{
							"parameter_longname" : "slider[2]",
							"parameter_shortname" : "slider[1]",
							"parameter_type" : 3,
							"parameter_initial_enable" : 1,
							"parameter_initial" : [ -48.0 ],
							"parameter_invisible" : 1
						}

					}
,
					"size" : 48.0,
					"style" : "",
					"varname" : "slider[2]"
				}

			}
, 			{
				"box" : 				{
					"floatoutput" : 1,
					"id" : "obj-53",
					"maxclass" : "slider",
					"min" : -48.0,
					"numinlets" : 1,
					"numoutlets" : 1,
					"outlettype" : [ "" ],
					"parameter_enable" : 1,
					"patching_rect" : [ 701.0, 209.0, 20.0, 120.900024 ],
					"saved_attribute_attributes" : 					{
						"valueof" : 						{
							"parameter_longname" : "slider[1]",
							"parameter_shortname" : "slider[1]",
							"parameter_type" : 3,
							"parameter_initial_enable" : 1,
							"parameter_initial" : [ -48.0 ],
							"parameter_invisible" : 1
						}

					}
,
					"size" : 48.0,
					"style" : "",
					"varname" : "slider[1]"
				}

			}
, 			{
				"box" : 				{
					"id" : "obj-40",
					"maxclass" : "multislider",
					"numinlets" : 1,
					"numoutlets" : 2,
					"outlettype" : [ "", "" ],
					"parameter_enable" : 1,
					"patching_rect" : [ 742.0, 501.450012, 300.0, 120.900024 ],
					"saved_attribute_attributes" : 					{
						"valueof" : 						{
							"parameter_longname" : "multislider[7]",
							"parameter_shortname" : "multislider[1]",
							"parameter_type" : 3,
							"parameter_initial_enable" : 1,
							"parameter_initial" : [ -32, -32, -32, -32, -32, -32 ],
							"parameter_invisible" : 1
						}

					}
,
					"setminmax" : [ -32.0, 0.0 ],
					"setstyle" : 1,
					"size" : 6,
					"spacing" : 20,
					"style" : "default",
					"varname" : "multislider[4]"
				}

			}
, 			{
				"box" : 				{
					"args" : [ "buf1", 0, 84, -32.0 ],
					"bgmode" : 0,
					"border" : 0,
					"clickthrough" : 0,
					"enablehscroll" : 0,
					"enablevscroll" : 0,
					"id" : "obj-39",
					"lockeddragscroll" : 0,
					"maxclass" : "bpatcher",
					"name" : "voice3.maxpat",
					"numinlets" : 6,
					"numoutlets" : 3,
					"offset" : [ 0.0, 0.0 ],
					"outlettype" : [ "signal", "signal", "int" ],
					"patching_rect" : [ 1112.111084, 501.450012, 350.0, 98.0 ],
					"viewvisibility" : 1
				}

			}
, 			{
				"box" : 				{
					"id" : "obj-37",
					"maxclass" : "message",
					"numinlets" : 2,
					"numoutlets" : 1,
					"outlettype" : [ "" ],
					"patching_rect" : [ 680.5, 735.0, 43.0, 22.0 ],
					"style" : "",
					"text" : "set $1"
				}

			}
, 			{
				"box" : 				{
					"id" : "obj-92",
					"maxclass" : "number",
					"numinlets" : 1,
					"numoutlets" : 2,
					"outlettype" : [ "", "bang" ],
					"parameter_enable" : 1,
					"patching_rect" : [ 1031.0, 668.900024, 50.0, 22.0 ],
					"saved_attribute_attributes" : 					{
						"valueof" : 						{
							"parameter_longname" : "number[10]",
							"parameter_shortname" : "number[10]",
							"parameter_type" : 3,
							"parameter_invisible" : 1
						}

					}
,
					"style" : "",
					"varname" : "number[10]"
				}

			}
, 			{
				"box" : 				{
					"id" : "obj-90",
					"maxclass" : "message",
					"numinlets" : 2,
					"numoutlets" : 1,
					"outlettype" : [ "" ],
					"patching_rect" : [ 1422.666748, 92.0, 49.0, 22.0 ],
					"style" : "",
					"text" : "size $1"
				}

			}
, 			{
				"box" : 				{
					"id" : "obj-72",
					"maxclass" : "newobj",
					"numinlets" : 1,
					"numoutlets" : 9,
					"outlettype" : [ "float", "list", "float", "float", "float", "float", "float", "", "int" ],
					"patching_rect" : [ 1301.666748, 92.0, 103.0, 22.0 ],
					"style" : "",
					"text" : "info~ buf1"
				}

			}
, 			{
				"box" : 				{
					"id" : "obj-71",
					"knobshape" : 5,
					"maxclass" : "slider",
					"numinlets" : 1,
					"numoutlets" : 1,
					"orientation" : 1,
					"outlettype" : [ "" ],
					"parameter_enable" : 1,
					"patching_rect" : [ 382.0, 668.900024, 640.0, 22.0 ],
					"relative" : 1,
					"saved_attribute_attributes" : 					{
						"valueof" : 						{
							"parameter_longname" : "slider",
							"parameter_shortname" : "slider",
							"parameter_type" : 0,
							"parameter_initial_enable" : 1,
							"parameter_initial" : [ 0 ],
							"parameter_invisible" : 1
						}

					}
,
					"size" : 65042.0,
					"style" : "",
					"varname" : "slider"
				}

			}
, 			{
				"box" : 				{
					"id" : "obj-69",
					"maxclass" : "multislider",
					"numinlets" : 1,
					"numoutlets" : 2,
					"outlettype" : [ "", "" ],
					"parameter_enable" : 1,
					"patching_rect" : [ 742.0, 209.0, 300.0, 120.900024 ],
					"saved_attribute_attributes" : 					{
						"valueof" : 						{
							"parameter_longname" : "multislider[6]",
							"parameter_shortname" : "multislider[1]",
							"parameter_type" : 3,
							"parameter_initial_enable" : 1,
							"parameter_initial" : [ -32, -32, -32, -32, -32, -32 ],
							"parameter_invisible" : 1
						}

					}
,
					"setminmax" : [ -32.0, 0.0 ],
					"setstyle" : 1,
					"size" : 6,
					"spacing" : 20,
					"style" : "default",
					"varname" : "multislider[6]"
				}

			}
, 			{
				"box" : 				{
					"id" : "obj-68",
					"maxclass" : "multislider",
					"numinlets" : 1,
					"numoutlets" : 2,
					"outlettype" : [ "", "" ],
					"parameter_enable" : 1,
					"patching_rect" : [ 382.0, 501.450012, 305.0, 120.900024 ],
					"saved_attribute_attributes" : 					{
						"valueof" : 						{
							"parameter_longname" : "multislider[5]",
							"parameter_shortname" : "multislider[1]",
							"parameter_type" : 3,
							"parameter_initial_enable" : 1,
							"parameter_initial" : [ -32, -32, -32, -32, -32, -32 ],
							"parameter_invisible" : 1
						}

					}
,
					"setminmax" : [ -32.0, 0.0 ],
					"setstyle" : 1,
					"size" : 6,
					"spacing" : 20,
					"style" : "default",
					"varname" : "multislider[5]"
				}

			}
, 			{
				"box" : 				{
					"id" : "obj-66",
					"maxclass" : "multislider",
					"numinlets" : 1,
					"numoutlets" : 2,
					"outlettype" : [ "", "" ],
					"parameter_enable" : 1,
					"patching_rect" : [ 742.0, 350.549988, 300.0, 120.900024 ],
					"saved_attribute_attributes" : 					{
						"valueof" : 						{
							"parameter_longname" : "multislider[3]",
							"parameter_shortname" : "multislider[1]",
							"parameter_type" : 3,
							"parameter_initial_enable" : 1,
							"parameter_initial" : [ -32, -32, -32, -32, -32, -32 ],
							"parameter_invisible" : 1
						}

					}
,
					"setminmax" : [ -32.0, 0.0 ],
					"setstyle" : 1,
					"size" : 6,
					"spacing" : 20,
					"style" : "default",
					"varname" : "multislider[3]"
				}

			}
, 			{
				"box" : 				{
					"id" : "obj-65",
					"maxclass" : "multislider",
					"numinlets" : 1,
					"numoutlets" : 2,
					"outlettype" : [ "", "" ],
					"parameter_enable" : 1,
					"patching_rect" : [ 382.0, 350.549988, 305.0, 120.900024 ],
					"saved_attribute_attributes" : 					{
						"valueof" : 						{
							"parameter_longname" : "multislider[2]",
							"parameter_shortname" : "multislider[1]",
							"parameter_type" : 3,
							"parameter_initial_enable" : 1,
							"parameter_initial" : [ -32, -32, -32, -32, -32, -32 ],
							"parameter_invisible" : 1
						}

					}
,
					"setminmax" : [ -32.0, 0.0 ],
					"setstyle" : 1,
					"size" : 6,
					"spacing" : 20,
					"style" : "default",
					"varname" : "multislider[2]"
				}

			}
, 			{
				"box" : 				{
					"id" : "obj-51",
					"maxclass" : "multislider",
					"numinlets" : 1,
					"numoutlets" : 2,
					"outlettype" : [ "", "" ],
					"parameter_enable" : 1,
					"patching_rect" : [ 382.0, 209.0, 305.0, 120.900024 ],
					"saved_attribute_attributes" : 					{
						"valueof" : 						{
							"parameter_longname" : "multislider[1]",
							"parameter_shortname" : "multislider[1]",
							"parameter_type" : 3,
							"parameter_initial_enable" : 1,
							"parameter_initial" : [ -32, -32, -32, -32, -32, -32 ],
							"parameter_invisible" : 1
						}

					}
,
					"setminmax" : [ -32.0, 0.0 ],
					"setstyle" : 1,
					"size" : 6,
					"spacing" : 20,
					"style" : "default",
					"varname" : "multislider[1]"
				}

			}
, 			{
				"box" : 				{
					"args" : [ "buf1", 0, 3, -32.0 ],
					"bgmode" : 0,
					"border" : 0,
					"clickthrough" : 0,
					"enablehscroll" : 0,
					"enablevscroll" : 0,
					"id" : "obj-31",
					"lockeddragscroll" : 0,
					"maxclass" : "bpatcher",
					"name" : "voice3.maxpat",
					"numinlets" : 6,
					"numoutlets" : 3,
					"offset" : [ 0.0, 0.0 ],
					"outlettype" : [ "signal", "signal", "int" ],
					"patching_rect" : [ 16.299957, 501.450012, 345.0, 102.0 ],
					"viewvisibility" : 1
				}

			}
, 			{
				"box" : 				{
					"args" : [ "buf1", 0, 42, -32.0 ],
					"bgmode" : 0,
					"border" : 0,
					"clickthrough" : 0,
					"enablehscroll" : 0,
					"enablevscroll" : 0,
					"id" : "obj-23",
					"lockeddragscroll" : 0,
					"maxclass" : "bpatcher",
					"name" : "voice3.maxpat",
					"numinlets" : 6,
					"numoutlets" : 3,
					"offset" : [ 0.0, 0.0 ],
					"outlettype" : [ "signal", "signal", "int" ],
					"patching_rect" : [ 1116.111084, 209.0, 345.0, 99.599976 ],
					"viewvisibility" : 1
				}

			}
, 			{
				"box" : 				{
					"args" : [ "buf1", 0, 63, -32.0 ],
					"bgmode" : 0,
					"border" : 0,
					"clickthrough" : 0,
					"enablehscroll" : 0,
					"enablevscroll" : 0,
					"id" : "obj-18",
					"lockeddragscroll" : 0,
					"maxclass" : "bpatcher",
					"name" : "voice3.maxpat",
					"numinlets" : 6,
					"numoutlets" : 3,
					"offset" : [ 0.0, 0.0 ],
					"outlettype" : [ "signal", "signal", "int" ],
					"patching_rect" : [ 1112.111084, 350.549988, 350.0, 100.099976 ],
					"viewvisibility" : 1
				}

			}
, 			{
				"box" : 				{
					"id" : "obj-17",
					"maxclass" : "newobj",
					"numinlets" : 1,
					"numoutlets" : 1,
					"outlettype" : [ "bang" ],
					"patching_rect" : [ 1157.666748, 36.399994, 60.0, 22.0 ],
					"style" : "",
					"text" : "loadbang"
				}

			}
, 			{
				"box" : 				{
					"id" : "obj-4",
					"maxclass" : "message",
					"numinlets" : 2,
					"numoutlets" : 1,
					"outlettype" : [ "" ],
					"patching_rect" : [ 1157.666748, 60.399994, 594.0, 22.0 ],
					"style" : "",
					"text" : "replace \"entrada, puertas, subir y bajar en el ascensor; facultad BBAA (1min) [xyh6-120] 171122-164519.wav\""
				}

			}
, 			{
				"box" : 				{
					"id" : "obj-2",
					"maxclass" : "newobj",
					"numinlets" : 1,
					"numoutlets" : 2,
					"outlettype" : [ "float", "bang" ],
					"patching_rect" : [ 1157.666748, 92.0, 105.0, 22.0 ],
					"style" : "",
					"text" : "buffer~ buf1 0 0 2"
				}

			}
, 			{
				"box" : 				{
					"id" : "obj-6",
					"maxclass" : "newobj",
					"numinlets" : 0,
					"numoutlets" : 0,
					"patcher" : 					{
						"fileversion" : 1,
						"appversion" : 						{
							"major" : 7,
							"minor" : 3,
							"revision" : 5,
							"architecture" : "x86",
							"modernui" : 1
						}
,
						"rect" : [ -237.0, -1337.0, 2707.0, 1303.0 ],
						"bglocked" : 0,
						"openinpresentation" : 0,
						"default_fontsize" : 12.0,
						"default_fontface" : 0,
						"default_fontname" : "Arial",
						"gridonopen" : 1,
						"gridsize" : [ 15.0, 15.0 ],
						"gridsnaponopen" : 1,
						"objectsnaponopen" : 1,
						"statusbarvisible" : 2,
						"toolbarvisible" : 1,
						"lefttoolbarpinned" : 0,
						"toptoolbarpinned" : 0,
						"righttoolbarpinned" : 0,
						"bottomtoolbarpinned" : 0,
						"toolbars_unpinned_last_save" : 0,
						"tallnewobj" : 0,
						"boxanimatetime" : 200,
						"enablehscroll" : 1,
						"enablevscroll" : 1,
						"devicewidth" : 0.0,
						"description" : "",
						"digest" : "",
						"tags" : "",
						"style" : "",
						"subpatcher_template" : "",
						"boxes" : [ 							{
								"box" : 								{
									"id" : "obj-43",
									"maxclass" : "newobj",
									"numinlets" : 1,
									"numoutlets" : 1,
									"outlettype" : [ "bang" ],
									"patching_rect" : [ 27.0, 20.0, 60.0, 22.0 ],
									"style" : "",
									"text" : "loadbang"
								}

							}
, 							{
								"box" : 								{
									"id" : "obj-42",
									"maxclass" : "newobj",
									"numinlets" : 1,
									"numoutlets" : 1,
									"outlettype" : [ "" ],
									"patching_rect" : [ 27.0, 116.0, 74.0, 22.0 ],
									"style" : "",
									"text" : "prepend set"
								}

							}
, 							{
								"box" : 								{
									"id" : "obj-41",
									"maxclass" : "newobj",
									"numinlets" : 1,
									"numoutlets" : 2,
									"outlettype" : [ "", "int" ],
									"patching_rect" : [ 27.0, 92.0, 126.0, 22.0 ],
									"style" : "",
									"text" : "conformpath absolute"
								}

							}
, 							{
								"box" : 								{
									"id" : "obj-40",
									"maxclass" : "newobj",
									"numinlets" : 1,
									"numoutlets" : 1,
									"outlettype" : [ "" ],
									"patching_rect" : [ 27.0, 140.0, 89.0, 22.0 ],
									"style" : "",
									"text" : "filepath search"
								}

							}
, 							{
								"box" : 								{
									"id" : "obj-15",
									"maxclass" : "message",
									"numinlets" : 2,
									"numoutlets" : 1,
									"outlettype" : [ "" ],
									"patching_rect" : [ 27.0, 44.0, 34.0, 22.0 ],
									"style" : "",
									"text" : "path"
								}

							}
, 							{
								"box" : 								{
									"id" : "obj-16",
									"maxclass" : "newobj",
									"numinlets" : 1,
									"numoutlets" : 2,
									"outlettype" : [ "", "" ],
									"patching_rect" : [ 27.0, 68.0, 69.0, 22.0 ],
									"save" : [ "#N", "thispatcher", ";", "#Q", "end", ";" ],
									"style" : "",
									"text" : "thispatcher"
								}

							}
 ],
						"lines" : [ 							{
								"patchline" : 								{
									"destination" : [ "obj-16", 0 ],
									"source" : [ "obj-15", 0 ]
								}

							}
, 							{
								"patchline" : 								{
									"destination" : [ "obj-41", 0 ],
									"source" : [ "obj-16", 1 ]
								}

							}
, 							{
								"patchline" : 								{
									"destination" : [ "obj-42", 0 ],
									"source" : [ "obj-41", 0 ]
								}

							}
, 							{
								"patchline" : 								{
									"destination" : [ "obj-40", 0 ],
									"source" : [ "obj-42", 0 ]
								}

							}
, 							{
								"patchline" : 								{
									"destination" : [ "obj-15", 0 ],
									"source" : [ "obj-43", 0 ]
								}

							}
 ]
					}
,
					"patching_rect" : [ 1157.666748, 0.0, 63.0, 22.0 ],
					"saved_object_attributes" : 					{
						"description" : "",
						"digest" : "",
						"globalpatchername" : "",
						"style" : "",
						"tags" : ""
					}
,
					"style" : "",
					"text" : "p initialize"
				}

			}
, 			{
				"box" : 				{
					"args" : [ "buf1", 0, 2, -32.0 ],
					"bgmode" : 0,
					"border" : 0,
					"clickthrough" : 0,
					"enablehscroll" : 0,
					"enablevscroll" : 0,
					"id" : "obj-9",
					"lockeddragscroll" : 0,
					"maxclass" : "bpatcher",
					"name" : "voice3.maxpat",
					"numinlets" : 6,
					"numoutlets" : 3,
					"offset" : [ 0.0, 0.0 ],
					"outlettype" : [ "signal", "signal", "int" ],
					"patching_rect" : [ 16.299957, 350.549988, 345.0, 100.099976 ],
					"viewvisibility" : 1
				}

			}
, 			{
				"box" : 				{
					"args" : [ "buf1", 0, 0, -32.0 ],
					"bgmode" : 0,
					"border" : 0,
					"clickthrough" : 0,
					"enablehscroll" : 0,
					"enablevscroll" : 0,
					"id" : "obj-7",
					"lockeddragscroll" : 0,
					"maxclass" : "bpatcher",
					"name" : "voice3.maxpat",
					"numinlets" : 6,
					"numoutlets" : 3,
					"offset" : [ 0.0, 0.0 ],
					"outlettype" : [ "signal", "signal", "int" ],
					"patching_rect" : [ 16.299957, 209.0, 344.599945, 99.599976 ],
					"viewvisibility" : 1
				}

			}
, 			{
				"box" : 				{
					"id" : "obj-48",
					"maxclass" : "comment",
					"numinlets" : 1,
					"numoutlets" : 0,
					"patching_rect" : [ 630.0, 50.399994, 59.0, 20.0 ],
					"style" : "",
					"text" : "Stop!!!"
				}

			}
, 			{
				"box" : 				{
					"id" : "obj-35",
					"maxclass" : "button",
					"numinlets" : 1,
					"numoutlets" : 1,
					"outlettype" : [ "bang" ],
					"patching_rect" : [ 827.0, 50.399994, 24.0, 24.0 ],
					"style" : ""
				}

			}
, 			{
				"box" : 				{
					"id" : "obj-33",
					"maxclass" : "button",
					"numinlets" : 1,
					"numoutlets" : 1,
					"outlettype" : [ "bang" ],
					"patching_rect" : [ 601.0, 52.399994, 24.0, 24.0 ],
					"style" : ""
				}

			}
, 			{
				"box" : 				{
					"id" : "obj-26",
					"maxclass" : "newobj",
					"numinlets" : 1,
					"numoutlets" : 1,
					"outlettype" : [ "bang" ],
					"patching_rect" : [ 729.399902, 7.0, 60.0, 22.0 ],
					"style" : "",
					"text" : "loadbang"
				}

			}
, 			{
				"box" : 				{
					"id" : "obj-27",
					"maxclass" : "comment",
					"numinlets" : 1,
					"numoutlets" : 0,
					"patching_rect" : [ 856.0, 52.399994, 49.0, 20.0 ],
					"style" : "",
					"text" : "Start!!!"
				}

			}
, 			{
				"box" : 				{
					"id" : "obj-5",
					"maxclass" : "newobj",
					"numinlets" : 12,
					"numoutlets" : 0,
					"patching_rect" : [ 610.0, 774.400024, 176.0, 22.0 ],
					"style" : "",
					"text" : "dac~ 1 2 3 4 5 6 7 8 9 10 11 12"
				}

			}
, 			{
				"box" : 				{
					"background" : 1,
					"draw_tab_name" : 0,
					"id" : "obj-44",
					"ignoreclick" : 1,
					"maxclass" : "mira.frame",
					"numinlets" : 0,
					"numoutlets" : 0,
					"patching_rect" : [ 367.0, 194.0, 738.461548, 525.0 ],
					"presentation" : 1,
					"presentation_rect" : [ 1020.0, 150.0, 818.637451, 582.000061 ],
					"tabname" : "Base"
				}

			}
 ],
		"lines" : [ 			{
				"patchline" : 				{
					"destination" : [ "obj-1", 3 ],
					"source" : [ "obj-10", 0 ]
				}

			}
, 			{
				"patchline" : 				{
					"destination" : [ "obj-4", 0 ],
					"source" : [ "obj-17", 0 ]
				}

			}
, 			{
				"patchline" : 				{
					"destination" : [ "obj-5", 9 ],
					"source" : [ "obj-18", 1 ]
				}

			}
, 			{
				"patchline" : 				{
					"destination" : [ "obj-5", 8 ],
					"source" : [ "obj-18", 0 ]
				}

			}
, 			{
				"patchline" : 				{
					"destination" : [ "obj-72", 0 ],
					"order" : 0,
					"source" : [ "obj-2", 1 ]
				}

			}
, 			{
				"patchline" : 				{
					"destination" : [ "obj-8", 0 ],
					"order" : 1,
					"source" : [ "obj-2", 1 ]
				}

			}
, 			{
				"patchline" : 				{
					"destination" : [ "obj-5", 7 ],
					"source" : [ "obj-23", 1 ]
				}

			}
, 			{
				"patchline" : 				{
					"destination" : [ "obj-5", 6 ],
					"source" : [ "obj-23", 0 ]
				}

			}
, 			{
				"patchline" : 				{
					"destination" : [ "obj-33", 0 ],
					"order" : 6,
					"source" : [ "obj-26", 0 ]
				}

			}
, 			{
				"patchline" : 				{
					"destination" : [ "obj-51", 0 ],
					"order" : 9,
					"source" : [ "obj-26", 0 ]
				}

			}
, 			{
				"patchline" : 				{
					"destination" : [ "obj-53", 0 ],
					"order" : 5,
					"source" : [ "obj-26", 0 ]
				}

			}
, 			{
				"patchline" : 				{
					"destination" : [ "obj-56", 0 ],
					"order" : 4,
					"source" : [ "obj-26", 0 ]
				}

			}
, 			{
				"patchline" : 				{
					"destination" : [ "obj-57", 0 ],
					"order" : 3,
					"source" : [ "obj-26", 0 ]
				}

			}
, 			{
				"patchline" : 				{
					"destination" : [ "obj-58", 0 ],
					"order" : 2,
					"source" : [ "obj-26", 0 ]
				}

			}
, 			{
				"patchline" : 				{
					"destination" : [ "obj-59", 0 ],
					"order" : 1,
					"source" : [ "obj-26", 0 ]
				}

			}
, 			{
				"patchline" : 				{
					"destination" : [ "obj-60", 0 ],
					"order" : 0,
					"source" : [ "obj-26", 0 ]
				}

			}
, 			{
				"patchline" : 				{
					"destination" : [ "obj-65", 0 ],
					"order" : 8,
					"source" : [ "obj-26", 0 ]
				}

			}
, 			{
				"patchline" : 				{
					"destination" : [ "obj-68", 0 ],
					"order" : 7,
					"source" : [ "obj-26", 0 ]
				}

			}
, 			{
				"patchline" : 				{
					"destination" : [ "obj-5", 5 ],
					"source" : [ "obj-31", 1 ]
				}

			}
, 			{
				"patchline" : 				{
					"destination" : [ "obj-5", 4 ],
					"source" : [ "obj-31", 0 ]
				}

			}
, 			{
				"patchline" : 				{
					"destination" : [ "obj-18", 0 ],
					"order" : 1,
					"source" : [ "obj-33", 0 ]
				}

			}
, 			{
				"patchline" : 				{
					"destination" : [ "obj-23", 0 ],
					"order" : 2,
					"source" : [ "obj-33", 0 ]
				}

			}
, 			{
				"patchline" : 				{
					"destination" : [ "obj-31", 0 ],
					"order" : 3,
					"source" : [ "obj-33", 0 ]
				}

			}
, 			{
				"patchline" : 				{
					"destination" : [ "obj-39", 0 ],
					"order" : 0,
					"source" : [ "obj-33", 0 ]
				}

			}
, 			{
				"patchline" : 				{
					"destination" : [ "obj-7", 0 ],
					"order" : 5,
					"source" : [ "obj-33", 0 ]
				}

			}
, 			{
				"patchline" : 				{
					"destination" : [ "obj-9", 0 ],
					"order" : 4,
					"source" : [ "obj-33", 0 ]
				}

			}
, 			{
				"patchline" : 				{
					"destination" : [ "obj-18", 1 ],
					"order" : 7,
					"source" : [ "obj-35", 0 ]
				}

			}
, 			{
				"patchline" : 				{
					"destination" : [ "obj-23", 1 ],
					"order" : 8,
					"source" : [ "obj-35", 0 ]
				}

			}
, 			{
				"patchline" : 				{
					"destination" : [ "obj-31", 1 ],
					"order" : 9,
					"source" : [ "obj-35", 0 ]
				}

			}
, 			{
				"patchline" : 				{
					"destination" : [ "obj-39", 1 ],
					"order" : 6,
					"source" : [ "obj-35", 0 ]
				}

			}
, 			{
				"patchline" : 				{
					"destination" : [ "obj-53", 0 ],
					"order" : 5,
					"source" : [ "obj-35", 0 ]
				}

			}
, 			{
				"patchline" : 				{
					"destination" : [ "obj-56", 0 ],
					"order" : 4,
					"source" : [ "obj-35", 0 ]
				}

			}
, 			{
				"patchline" : 				{
					"destination" : [ "obj-57", 0 ],
					"order" : 3,
					"source" : [ "obj-35", 0 ]
				}

			}
, 			{
				"patchline" : 				{
					"destination" : [ "obj-58", 0 ],
					"order" : 2,
					"source" : [ "obj-35", 0 ]
				}

			}
, 			{
				"patchline" : 				{
					"destination" : [ "obj-59", 0 ],
					"order" : 1,
					"source" : [ "obj-35", 0 ]
				}

			}
, 			{
				"patchline" : 				{
					"destination" : [ "obj-60", 0 ],
					"order" : 0,
					"source" : [ "obj-35", 0 ]
				}

			}
, 			{
				"patchline" : 				{
					"destination" : [ "obj-7", 1 ],
					"order" : 11,
					"source" : [ "obj-35", 0 ]
				}

			}
, 			{
				"patchline" : 				{
					"destination" : [ "obj-9", 1 ],
					"order" : 10,
					"source" : [ "obj-35", 0 ]
				}

			}
, 			{
				"patchline" : 				{
					"destination" : [ "obj-71", 0 ],
					"order" : 1,
					"source" : [ "obj-37", 0 ]
				}

			}
, 			{
				"patchline" : 				{
					"destination" : [ "obj-92", 0 ],
					"order" : 0,
					"source" : [ "obj-37", 0 ]
				}

			}
, 			{
				"patchline" : 				{
					"destination" : [ "obj-1", 2 ],
					"order" : 1,
					"source" : [ "obj-39", 2 ]
				}

			}
, 			{
				"patchline" : 				{
					"destination" : [ "obj-10", 0 ],
					"order" : 0,
					"source" : [ "obj-39", 2 ]
				}

			}
, 			{
				"patchline" : 				{
					"destination" : [ "obj-37", 0 ],
					"order" : 2,
					"source" : [ "obj-39", 2 ]
				}

			}
, 			{
				"patchline" : 				{
					"destination" : [ "obj-5", 11 ],
					"source" : [ "obj-39", 1 ]
				}

			}
, 			{
				"patchline" : 				{
					"destination" : [ "obj-5", 10 ],
					"source" : [ "obj-39", 0 ]
				}

			}
, 			{
				"patchline" : 				{
					"destination" : [ "obj-2", 0 ],
					"source" : [ "obj-4", 0 ]
				}

			}
, 			{
				"patchline" : 				{
					"destination" : [ "obj-39", 4 ],
					"source" : [ "obj-40", 0 ]
				}

			}
, 			{
				"patchline" : 				{
					"destination" : [ "obj-7", 4 ],
					"source" : [ "obj-51", 0 ]
				}

			}
, 			{
				"patchline" : 				{
					"destination" : [ "obj-7", 5 ],
					"source" : [ "obj-53", 0 ]
				}

			}
, 			{
				"patchline" : 				{
					"destination" : [ "obj-9", 5 ],
					"source" : [ "obj-56", 0 ]
				}

			}
, 			{
				"patchline" : 				{
					"destination" : [ "obj-31", 5 ],
					"source" : [ "obj-57", 0 ]
				}

			}
, 			{
				"patchline" : 				{
					"destination" : [ "obj-23", 5 ],
					"source" : [ "obj-58", 0 ]
				}

			}
, 			{
				"patchline" : 				{
					"destination" : [ "obj-18", 5 ],
					"source" : [ "obj-59", 0 ]
				}

			}
, 			{
				"patchline" : 				{
					"destination" : [ "obj-39", 5 ],
					"source" : [ "obj-60", 0 ]
				}

			}
, 			{
				"patchline" : 				{
					"destination" : [ "obj-9", 4 ],
					"source" : [ "obj-65", 0 ]
				}

			}
, 			{
				"patchline" : 				{
					"destination" : [ "obj-18", 4 ],
					"source" : [ "obj-66", 0 ]
				}

			}
, 			{
				"patchline" : 				{
					"destination" : [ "obj-31", 4 ],
					"source" : [ "obj-68", 0 ]
				}

			}
, 			{
				"patchline" : 				{
					"destination" : [ "obj-23", 4 ],
					"source" : [ "obj-69", 0 ]
				}

			}
, 			{
				"patchline" : 				{
					"destination" : [ "obj-5", 1 ],
					"source" : [ "obj-7", 1 ]
				}

			}
, 			{
				"patchline" : 				{
					"destination" : [ "obj-5", 0 ],
					"source" : [ "obj-7", 0 ]
				}

			}
, 			{
				"patchline" : 				{
					"destination" : [ "obj-18", 2 ],
					"order" : 2,
					"source" : [ "obj-71", 0 ]
				}

			}
, 			{
				"patchline" : 				{
					"destination" : [ "obj-23", 2 ],
					"order" : 3,
					"source" : [ "obj-71", 0 ]
				}

			}
, 			{
				"patchline" : 				{
					"destination" : [ "obj-31", 2 ],
					"order" : 4,
					"source" : [ "obj-71", 0 ]
				}

			}
, 			{
				"patchline" : 				{
					"destination" : [ "obj-39", 2 ],
					"order" : 1,
					"source" : [ "obj-71", 0 ]
				}

			}
, 			{
				"patchline" : 				{
					"destination" : [ "obj-7", 2 ],
					"order" : 6,
					"source" : [ "obj-71", 0 ]
				}

			}
, 			{
				"patchline" : 				{
					"destination" : [ "obj-9", 2 ],
					"order" : 5,
					"source" : [ "obj-71", 0 ]
				}

			}
, 			{
				"patchline" : 				{
					"destination" : [ "obj-92", 0 ],
					"order" : 0,
					"source" : [ "obj-71", 0 ]
				}

			}
, 			{
				"patchline" : 				{
					"destination" : [ "obj-90", 0 ],
					"source" : [ "obj-72", 6 ]
				}

			}
, 			{
				"patchline" : 				{
					"destination" : [ "obj-1", 0 ],
					"source" : [ "obj-8", 0 ]
				}

			}
, 			{
				"patchline" : 				{
					"destination" : [ "obj-5", 3 ],
					"source" : [ "obj-9", 1 ]
				}

			}
, 			{
				"patchline" : 				{
					"destination" : [ "obj-5", 2 ],
					"source" : [ "obj-9", 0 ]
				}

			}
, 			{
				"patchline" : 				{
					"destination" : [ "obj-71", 0 ],
					"source" : [ "obj-90", 0 ]
				}

			}
, 			{
				"patchline" : 				{
					"destination" : [ "obj-1", 2 ],
					"source" : [ "obj-92", 0 ]
				}

			}
 ],
		"parameters" : 		{
			"obj-56" : [ "slider[2]", "slider[1]", 0 ],
			"obj-66" : [ "multislider[3]", "multislider[1]", 0 ],
			"obj-60" : [ "slider[6]", "slider[1]", 0 ],
			"obj-71" : [ "slider", "slider", 0 ],
			"obj-57" : [ "slider[3]", "slider[1]", 0 ],
			"obj-68" : [ "multislider[5]", "multislider[1]", 0 ],
			"obj-92" : [ "number[10]", "number[10]", 0 ],
			"obj-58" : [ "slider[4]", "slider[1]", 0 ],
			"obj-69" : [ "multislider[6]", "multislider[1]", 0 ],
			"obj-51" : [ "multislider[1]", "multislider[1]", 0 ],
			"obj-59" : [ "slider[5]", "slider[1]", 0 ],
			"obj-40" : [ "multislider[7]", "multislider[1]", 0 ],
			"obj-53" : [ "slider[1]", "slider[1]", 0 ],
			"obj-65" : [ "multislider[2]", "multislider[1]", 0 ]
		}
,
		"dependency_cache" : [ 			{
				"name" : "voice3.maxpat",
				"bootpath" : "~/All/Audio/Composición/Proyectos/p171130/Max",
				"patcherrelativepath" : ".",
				"type" : "JSON",
				"implicit" : 1
			}
, 			{
				"name" : "dbstereogain.maxpat",
				"bootpath" : "~/All/Audio/Composición/Proyectos/p171130/Max",
				"patcherrelativepath" : ".",
				"type" : "JSON",
				"implicit" : 1
			}
, 			{
				"name" : "soften.maxpat",
				"bootpath" : "~/All/Audio/Composición/Proyectos/p171130/Max",
				"patcherrelativepath" : ".",
				"type" : "JSON",
				"implicit" : 1
			}
 ],
		"autosave" : 0
	}

}
